<svg id="Camada_1" data-name="Camada 1" xmlns="http://www.w3.org/2000/svg" viewBox="0 0 320.62 290.42"><path d="M161.24,277.42c-.84-.38-1.67-.79-2.48-1.23a46.88,46.88,0,0,1-15.23-13H36.3a9.1,9.1,0,0,1-9.07-9.08V36.31a9.1,9.1,0,0,1,9.07-9.08h90.76V72.61a18.13,18.13,0,0,0,18.15,18.15h45.37v57.36a51,51,0,0,1,13-4.09c.41-.07.82-.14,1.23-.19a51.05,51.05,0,0,1,13-.25V87.64a36.33,36.33,0,0,0-10.61-25.7L155.87,10.61A36.3,36.3,0,0,0,130.18,0H36.3A36.34,36.34,0,0,0,0,36.31v217.8a36.34,36.34,0,0,0,36.3,36.31H181.51a36.13,36.13,0,0,0,23.61-8.74H180.69A46.22,46.22,0,0,1,161.24,277.42ZM140.06,15.17a23.35,23.35,0,0,1,6.62,4.63L198,71.14a22.91,22.91,0,0,1,4.64,6.62H145.21a5.16,5.16,0,0,1-5.15-5.15Z"/><path d="M291.73,204.19a27.09,27.09,0,0,0-40.32-32.28,45.09,45.09,0,0,0-33.6-22.27,42.11,42.11,0,0,0-5.53-.35,44.82,44.82,0,0,0-7.47.62c-.41.06-.82.14-1.23.22a44.62,44.62,0,0,0-13,4.71,45.12,45.12,0,0,0-23.44,39.59c0,.76,0,1.52.06,2.28a40.64,40.64,0,0,0,13.49,79H284.51a36.11,36.11,0,0,0,7.22-71.49Zm-7.22,51.49H180.69a20.64,20.64,0,0,1-6.85-40.1l13.89-4.89L187.19,196c0-.52-.05-1-.05-1.54a24.93,24.93,0,0,1,3.44-12.68,25.27,25.27,0,0,1,13-10.91l1.23-.42a25.25,25.25,0,0,1,7.47-1.13,24.87,24.87,0,0,1,5.53.62,25.28,25.28,0,0,1,16.28,12l10.7,18.53,17.77-11.92a6.92,6.92,0,0,1,3.89-1.18,7.09,7.09,0,0,1,7.08,7.09,7.22,7.22,0,0,1-.48,2.6l-8.46,22.08,23.18,4.68a16.11,16.11,0,0,1-3.26,31.89Z"/><path d="M120.69,234.77c13.14-16.44,43.1-56.28,43.1-78.66a49.17,49.17,0,1,0-98.34,0c0,22.38,30,62.22,43.1,78.66a7.74,7.74,0,0,0,12.14,0Zm-6.07-95.05a16.39,16.39,0,1,1-16.39,16.39A16.39,16.39,0,0,1,114.62,139.72Z"/></svg>